<svg width="2305" height="1227" xmlns="http://www.w3.org/2000/svg"><g><path d="M-75,-42L-118,359L-55,245Z" fill="#e94833" stroke="#e94833"/><path d="M-75,-42L-55,245L-49,15Z" fill="#e92b26" stroke="#e92b26"/><path d="M-75,-42L-49,15L43,-98Z" fill="#ea0f19" stroke="#ea0f19"/><path d="M43,-98L-49,15L124,90Z" fill="#ed2423" stroke="#ed2423"/><path d="M43,-98L124,90L267,-67Z" fill="#f02a25" stroke="#f02a25"/><path d="M43,-98L267,-67L414,-107Z" fill="#f32c22" stroke="#f32c22"/><path d="M43,-98L414,-107L654,-113Z" fill="#f73d28" stroke="#f73d28"/><path d="M267,-67L124,90L252,45Z" fill="#f24030" stroke="#f24030"/><path d="M267,-67L252,45L414,-107Z" fill="#f63a2d" stroke="#f63a2d"/><path d="M414,-107L252,45L485,-17Z" fill="#f84833" stroke="#f84833"/><path d="M414,-107L485,-17L654,-113Z" fill="#fc5034" stroke="#fc5034"/><path d="M485,-17L252,45L320,126Z" fill="#f75a3b" stroke="#f75a3b"/><path d="M485,-17L320,126L499,20Z" fill="#fa623f" stroke="#fa623f"/><path d="M485,-17L499,20L654,-113Z" fill="#fd5a3b" stroke="#fd5a3b"/><path d="M654,-113L499,20L684,120Z" fill="#fc6d45" stroke="#fc6d45"/><path d="M654,-113L684,120L793,-94Z" fill="#f56646" stroke="#f56646"/><path d="M654,-113L793,-94L987,-113Z" fill="#ee6142" stroke="#ee6142"/><path d="M793,-94L684,120L836,87Z" fill="#f07b53" stroke="#f07b53"/><path d="M793,-94L836,87L960,81Z" fill="#ea7b56" stroke="#ea7b56"/><path d="M793,-94L960,81L987,-113Z" fill="#e66a50" stroke="#e66a50"/><path d="M987,-113L960,81L1109,84Z" fill="#df805e" stroke="#df805e"/><path d="M987,-113L1109,84L1122,-112Z" fill="#db7059" stroke="#db7059"/><path d="M1122,-112L1109,84L1296,-37Z" fill="#d37861" stroke="#d37861"/><path d="M1122,-112L1296,-37L1416,-85Z" fill="#c7655c" stroke="#c7655c"/><path d="M1122,-112L1416,-85L1895,-101Z" fill="#b1555d" stroke="#b1555d"/><path d="M1122,-112L1895,-101L2028,-101Z" fill="#9a4560" stroke="#9a4560"/><path d="M1296,-37L1109,84L1293,114Z" fill="#cc896c" stroke="#cc896c"/><path d="M1296,-37L1293,114L1475,96Z" fill="#bf806f" stroke="#bf806f"/><path d="M1296,-37L1475,96L1416,-85Z" fill="#ba6b67" stroke="#ba6b67"/><path d="M1416,-85L1475,96L1621,-46Z" fill="#ae6169" stroke="#ae6169"/><path d="M1416,-85L1621,-46L1725,-57Z" fill="#a54d64" stroke="#a54d64"/><path d="M1416,-85L1725,-57L1895,-101Z" fill="#9b4663" stroke="#9b4663"/><path d="M1621,-46L1475,96L1597,105Z" fill="#a86f72" stroke="#a86f72"/><path d="M1621,-46L1597,105L1686,128Z" fill="#a06c75" stroke="#a06c75"/><path d="M1621,-46L1686,128L1725,-57Z" fill="#9b5a6f" stroke="#9b5a6f"/><path d="M1725,-57L1686,128L1851,81Z" fill="#925f76" stroke="#925f76"/><path d="M1725,-57L1851,81L1895,-101Z" fill="#8b456d" stroke="#8b456d"/><path d="M1895,-101L1851,81L1992,110Z" fill="#814d76" stroke="#814d76"/><path d="M1895,-101L1992,110L2028,-101Z" fill="#80386f" stroke="#80386f"/><path d="M2028,-101L1992,110L2156,39Z" fill="#803e77" stroke="#803e77"/><path d="M2028,-101L2156,39L2152,-80Z" fill="#802870" stroke="#802870"/><path d="M2028,-101L2152,-80L2426,-87Z" fill="#801d6c" stroke="#801d6c"/><path d="M2152,-80L2156,39L2312,-66Z" fill="#802473" stroke="#802473"/><path d="M2152,-80L2312,-66L2426,-87Z" fill="#801570" stroke="#801570"/><path d="M2312,-66L2156,39L2319,100Z" fill="#80317c" stroke="#80317c"/><path d="M2312,-66L2319,100L2426,-87Z" fill="#801e78" stroke="#801e78"/><path d="M2426,-87L2319,100L2529,122Z" fill="#802982" stroke="#802982"/><path d="M-49,15L-55,245L98,210Z" fill="#eb4a34" stroke="#eb4a34"/><path d="M-49,15L98,210L124,90Z" fill="#ed4331" stroke="#ed4331"/><path d="M124,90L98,210L221,231Z" fill="#f06340" stroke="#f06340"/><path d="M124,90L221,231L252,45Z" fill="#f25a3c" stroke="#f25a3c"/><path d="M252,45L221,231L320,126Z" fill="#f46641" stroke="#f46641"/><path d="M320,126L221,231L368,225Z" fill="#f57c4b" stroke="#f57c4b"/><path d="M320,126L368,225L466,227Z" fill="#f88650" stroke="#f88650"/><path d="M320,126L466,227L499,20Z" fill="#f97949" stroke="#f97949"/><path d="M499,20L466,227L684,120Z" fill="#fd8851" stroke="#fd8851"/><path d="M684,120L466,227L639,239Z" fill="#fda15d" stroke="#fda15d"/><path d="M684,120L639,239L829,219Z" fill="#f4a563" stroke="#f4a563"/><path d="M684,120L829,219L836,87Z" fill="#f09961" stroke="#f09961"/><path d="M836,87L829,219L960,81Z" fill="#e99965" stroke="#e99965"/><path d="M960,81L829,219L1023,195Z" fill="#e5a66d" stroke="#e5a66d"/><path d="M960,81L1023,195L1109,84Z" fill="#de9d6c" stroke="#de9d6c"/><path d="M1109,84L1023,195L1138,260Z" fill="#dab078" stroke="#dab078"/><path d="M1109,84L1138,260L1278,209Z" fill="#d3b27c" stroke="#d3b27c"/><path d="M1109,84L1278,209L1293,114Z" fill="#cda077" stroke="#cda077"/><path d="M1293,114L1278,209L1472,233Z" fill="#c0a57f" stroke="#c0a57f"/><path d="M1293,114L1472,233L1475,96Z" fill="#b8957c" stroke="#b8957c"/><path d="M1475,96L1472,233L1553,241Z" fill="#af9b83" stroke="#af9b83"/><path d="M1475,96L1553,241L1597,105Z" fill="#aa8b7e" stroke="#aa8b7e"/><path d="M1597,105L1553,241L1686,128Z" fill="#a28981" stroke="#a28981"/><path d="M1686,128L1553,241L1735,207Z" fill="#9d8f86" stroke="#9d8f86"/><path d="M1686,128L1735,207L1851,81Z" fill="#927881" stroke="#927881"/><path d="M1851,81L1735,207L1864,219Z" fill="#8b7c86" stroke="#8b7c86"/><path d="M1851,81L1864,219L1966,204Z" fill="#837588" stroke="#837588"/><path d="M1851,81L1966,204L1992,110Z" fill="#806884" stroke="#806884"/><path d="M1992,110L1966,204L2131,218Z" fill="#806d8b" stroke="#806d8b"/><path d="M1992,110L2131,218L2156,39Z" fill="#805986" stroke="#805986"/><path d="M2156,39L2131,218L2271,223Z" fill="#805d8c" stroke="#805d8c"/><path d="M2156,39L2271,223L2319,100Z" fill="#804d88" stroke="#804d88"/><path d="M2319,100L2271,223L2446,266Z" fill="#805a94" stroke="#805a94"/><path d="M2319,100L2446,266L2529,122Z" fill="#804a91" stroke="#804a91"/><path d="M2529,122L2446,266L2461,351Z" fill="#805e9d" stroke="#805e9d"/><path d="M2529,122L2461,351L2466,536Z" fill="#7d71a9" stroke="#7d71a9"/><path d="M2529,122L2466,536L2529,945Z" fill="#6d7ec4" stroke="#6d7ec4"/><path d="M-55,245L-118,359L37,408Z" fill="#e77149" stroke="#e77149"/><path d="M-55,245L37,408L98,210Z" fill="#ec7247" stroke="#ec7247"/><path d="M98,210L37,408L247,388Z" fill="#ed8753" stroke="#ed8753"/><path d="M98,210L247,388L221,231Z" fill="#f1844f" stroke="#f1844f"/><path d="M221,231L247,388L368,225Z" fill="#f49155" stroke="#f49155"/><path d="M368,225L247,388L433,407Z" fill="#f4a461" stroke="#f4a461"/><path d="M368,225L433,407L466,227Z" fill="#f9a55f" stroke="#f9a55f"/><path d="M466,227L433,407L551,399Z" fill="#f8b66a" stroke="#f8b66a"/><path d="M466,227L551,399L639,239Z" fill="#fdb766" stroke="#fdb766"/><path d="M639,239L551,399L693,317Z" fill="#fac26f" stroke="#fac26f"/><path d="M639,239L693,317L829,219Z" fill="#f4b76c" stroke="#f4b76c"/><path d="M829,219L693,317L845,397Z" fill="#efc877" stroke="#efc877"/><path d="M829,219L845,397L1017,376Z" fill="#e5ce80" stroke="#e5ce80"/><path d="M829,219L1017,376L1023,195Z" fill="#e3c27b" stroke="#e3c27b"/><path d="M1023,195L1017,376L1138,260Z" fill="#dcca82" stroke="#dcca82"/><path d="M1138,260L1017,376L1147,329Z" fill="#d8d58b" stroke="#d8d58b"/><path d="M1138,260L1147,329L1278,209Z" fill="#d1c887" stroke="#d1c887"/><path d="M1278,209L1147,329L1293,422Z" fill="#cbd08f" stroke="#cbd08f"/><path d="M1278,209L1293,422L1402,339Z" fill="#c1ca91" stroke="#c1ca91"/><path d="M1278,209L1402,339L1472,233Z" fill="#bcb78a" stroke="#bcb78a"/><path d="M1472,233L1402,339L1524,320Z" fill="#b2bb91" stroke="#b2bb91"/><path d="M1472,233L1524,320L1553,241Z" fill="#adae8d" stroke="#adae8d"/><path d="M1553,241L1524,320L1699,348Z" fill="#a4b394" stroke="#a4b394"/><path d="M1553,241L1699,348L1735,207Z" fill="#9da390" stroke="#9da390"/><path d="M1735,207L1699,348L1864,219Z" fill="#919991" stroke="#919991"/><path d="M1864,219L1699,348L1858,391Z" fill="#8ca49a" stroke="#8ca49a"/><path d="M1864,219L1858,391L1966,204Z" fill="#839295" stroke="#839295"/><path d="M1966,204L1858,391L1966,418Z" fill="#7d9c9f" stroke="#7d9c9f"/><path d="M1966,204L1966,418L2123,378Z" fill="#7e95a0" stroke="#7e95a0"/><path d="M1966,204L2123,378L2131,218Z" fill="#808398" stroke="#808398"/><path d="M2131,218L2123,378L2286,325Z" fill="#80869f" stroke="#80869f"/><path d="M2131,218L2286,325L2271,223Z" fill="#80749a" stroke="#80749a"/><path d="M2271,223L2286,325L2446,266Z" fill="#80709e" stroke="#80709e"/><path d="M2446,266L2286,325L2461,351Z" fill="#7f76a5" stroke="#7f76a5"/><path d="M-118,359L-109,1228L-93,1138Z" fill="#855076" stroke="#855076"/><path d="M-118,359L-93,1138L-53,921Z" fill="#9f6273" stroke="#9f6273"/><path d="M-118,359L-53,921L-38,575Z" fill="#ce826c" stroke="#ce826c"/><path d="M-118,359L-38,575L37,408Z" fill="#de7a58" stroke="#de7a58"/><path d="M37,408L-38,575L127,468Z" fill="#de8862" stroke="#de8862"/><path d="M37,408L127,468L247,388Z" fill="#e68f5f" stroke="#e68f5f"/><path d="M247,388L127,468L169,565Z" fill="#e39969" stroke="#e39969"/><path d="M247,388L169,565L396,558Z" fill="#e4a772" stroke="#e4a772"/><path d="M247,388L396,558L433,407Z" fill="#ebae70" stroke="#ebae70"/><path d="M433,407L396,558L488,531Z" fill="#eabc7c" stroke="#eabc7c"/><path d="M433,407L488,531L551,399Z" fill="#f0bf78" stroke="#f0bf78"/><path d="M551,399L488,531L714,562Z" fill="#eece84" stroke="#eece84"/><path d="M551,399L714,562L693,317Z" fill="#efcb7e" stroke="#efcb7e"/><path d="M693,317L714,562L845,397Z" fill="#e8cf84" stroke="#e8cf84"/><path d="M845,397L714,562L848,575Z" fill="#ddd892" stroke="#ddd892"/><path d="M845,397L848,575L1023,470Z" fill="#d8da94" stroke="#d8da94"/><path d="M845,397L1023,470L1017,376Z" fill="#dad78f" stroke="#dad78f"/><path d="M1017,376L1023,470L1079,492Z" fill="#d2dd98" stroke="#d2dd98"/><path d="M1017,376L1079,492L1147,329Z" fill="#d3da94" stroke="#d3da94"/><path d="M1147,329L1079,492L1293,422Z" fill="#cadd9a" stroke="#cadd9a"/><path d="M1293,422L1079,492L1326,526Z" fill="#bedda4" stroke="#bedda4"/><path d="M1293,422L1326,526L1398,493Z" fill="#b2d5a6" stroke="#b2d5a6"/><path d="M1293,422L1398,493L1402,339Z" fill="#b5ce9e" stroke="#b5ce9e"/><path d="M1402,339L1398,493L1524,320Z" fill="#afc69b" stroke="#afc69b"/><path d="M1524,320L1398,493L1614,558Z" fill="#a1c6a7" stroke="#a1c6a7"/><path d="M1524,320L1614,558L1699,348Z" fill="#9abaa2" stroke="#9abaa2"/><path d="M1699,348L1614,558L1675,567Z" fill="#8dbdae" stroke="#8dbdae"/><path d="M1699,348L1675,567L1858,391Z" fill="#89b2a8" stroke="#89b2a8"/><path d="M1858,391L1675,567L1889,492Z" fill="#7eb1b0" stroke="#7eb1b0"/><path d="M1858,391L1889,492L1966,418Z" fill="#77a6ab" stroke="#77a6ab"/><path d="M1966,418L1889,492L1982,491Z" fill="#72a5b0" stroke="#72a5b0"/><path d="M1966,418L1982,491L2123,378Z" fill="#769cac" stroke="#769cac"/><path d="M2123,378L1982,491L2180,519Z" fill="#7399b2" stroke="#7399b2"/><path d="M2123,378L2180,519L2286,325Z" fill="#778dad" stroke="#778dad"/><path d="M2286,325L2180,519L2270,556Z" fill="#728db6" stroke="#728db6"/><path d="M2286,325L2270,556L2461,351Z" fill="#7782b0" stroke="#7782b0"/><path d="M2461,351L2270,556L2466,536Z" fill="#7182bb" stroke="#7182bb"/><path d="M-38,575L-53,921L-19,659Z" fill="#b77773" stroke="#b77773"/><path d="M-38,575L-19,659L47,686Z" fill="#cb8771" stroke="#cb8771"/><path d="M-38,575L47,686L169,565Z" fill="#d49373" stroke="#d49373"/><path d="M-38,575L169,565L127,468Z" fill="#db916b" stroke="#db916b"/><path d="M169,565L47,686L181,616Z" fill="#d49c79" stroke="#d49c79"/><path d="M169,565L181,616L396,558Z" fill="#ddaa7b" stroke="#ddaa7b"/><path d="M396,558L181,616L331,687Z" fill="#dab283" stroke="#dab283"/><path d="M396,558L331,687L543,692Z" fill="#d8be8b" stroke="#d8be8b"/><path d="M396,558L543,692L488,531Z" fill="#e3c88a" stroke="#e3c88a"/><path d="M488,531L543,692L696,622Z" fill="#e4d793" stroke="#e4d793"/><path d="M488,531L696,622L714,562Z" fill="#e4d691" stroke="#e4d691"/><path d="M714,562L696,622L848,575Z" fill="#dbdc9a" stroke="#dbdc9a"/><path d="M848,575L696,622L843,724Z" fill="#cfdba1" stroke="#cfdba1"/><path d="M848,575L843,724L1029,675Z" fill="#c2dda8" stroke="#c2dda8"/><path d="M848,575L1029,675L1023,470Z" fill="#cce4a4" stroke="#cce4a4"/><path d="M1023,470L1029,675L1079,492Z" fill="#c9e4a5" stroke="#c9e4a5"/><path d="M1079,492L1029,675L1142,704Z" fill="#beeab1" stroke="#beeab1"/><path d="M1079,492L1142,704L1326,526Z" fill="#bce9b0" stroke="#bce9b0"/><path d="M1326,526L1142,704L1263,698Z" fill="#aae3b7" stroke="#aae3b7"/><path d="M1326,526L1263,698L1439,676Z" fill="#a2dcb9" stroke="#a2dcb9"/><path d="M1326,526L1439,676L1398,493Z" fill="#a6d8b2" stroke="#a6d8b2"/><path d="M1398,493L1439,676L1614,558Z" fill="#9ad1b6" stroke="#9ad1b6"/><path d="M1614,558L1439,676L1521,713Z" fill="#89ccbd" stroke="#89ccbd"/><path d="M1614,558L1521,713L1684,698Z" fill="#7fc4bf" stroke="#7fc4bf"/><path d="M1614,558L1684,698L1675,567Z" fill="#84c6bd" stroke="#84c6bd"/><path d="M1675,567L1684,698L1834,713Z" fill="#70bac1" stroke="#70bac1"/><path d="M1675,567L1834,713L1889,492Z" fill="#76babe" stroke="#76babe"/><path d="M1889,492L1834,713L1968,662Z" fill="#67b3c3" stroke="#67b3c3"/><path d="M1889,492L1968,662L1982,491Z" fill="#6cabbb" stroke="#6cabbb"/><path d="M1982,491L1968,662L2140,649Z" fill="#67a9c4" stroke="#67a9c4"/><path d="M1982,491L2140,649L2180,519Z" fill="#6ba0be" stroke="#6ba0be"/><path d="M2180,519L2140,649L2270,556Z" fill="#699ac3" stroke="#699ac3"/><path d="M2270,556L2140,649L2325,669Z" fill="#6397ca" stroke="#6397ca"/><path d="M2270,556L2325,669L2466,536Z" fill="#688ec8" stroke="#688ec8"/><path d="M2466,536L2325,669L2465,697Z" fill="#6188cd" stroke="#6188cd"/><path d="M2466,536L2465,697L2529,945Z" fill="#4a74d3" stroke="#4a74d3"/><path d="M-19,659L-53,921L-28,860Z" fill="#9f6877" stroke="#9f6877"/><path d="M-19,659L-28,860L47,686Z" fill="#b37975" stroke="#b37975"/><path d="M47,686L-28,860L73,859Z" fill="#a4727a" stroke="#a4727a"/><path d="M47,686L73,859L267,782Z" fill="#ae837f" stroke="#ae837f"/><path d="M47,686L267,782L181,616Z" fill="#c3957e" stroke="#c3957e"/><path d="M181,616L267,782L331,687Z" fill="#c6a183" stroke="#c6a183"/><path d="M331,687L267,782L364,846Z" fill="#b59c8a" stroke="#b59c8a"/><path d="M331,687L364,846L535,768Z" fill="#b9a88f" stroke="#b9a88f"/><path d="M331,687L535,768L543,692Z" fill="#c8b891" stroke="#c8b891"/><path d="M543,692L535,768L629,825Z" fill="#c0be99" stroke="#c0be99"/><path d="M543,692L629,825L696,622Z" fill="#c8c999" stroke="#c8c999"/><path d="M696,622L629,825L788,811Z" fill="#b9c5a0" stroke="#b9c5a0"/><path d="M696,622L788,811L843,724Z" fill="#bccea3" stroke="#bccea3"/><path d="M843,724L788,811L968,802Z" fill="#a7c8ab" stroke="#a7c8ab"/><path d="M843,724L968,802L1029,675Z" fill="#acd2ad" stroke="#acd2ad"/><path d="M1029,675L968,802L1142,704Z" fill="#a7d7b3" stroke="#a7d7b3"/><path d="M1142,704L968,802L1159,884Z" fill="#93ceb9" stroke="#93ceb9"/><path d="M1142,704L1159,884L1219,828Z" fill="#89cebd" stroke="#89cebd"/><path d="M1142,704L1219,828L1263,698Z" fill="#95d5bb" stroke="#95d5bb"/><path d="M1263,698L1219,828L1384,769Z" fill="#87cbbd" stroke="#87cbbd"/><path d="M1263,698L1384,769L1439,676Z" fill="#8bcdbd" stroke="#8bcdbd"/><path d="M1439,676L1384,769L1521,713Z" fill="#80c6be" stroke="#80c6be"/><path d="M1521,713L1384,769L1528,767Z" fill="#76bfc0" stroke="#76bfc0"/><path d="M1521,713L1528,767L1684,698Z" fill="#71bbc1" stroke="#71bbc1"/><path d="M1684,698L1528,767L1680,803Z" fill="#63b2c3" stroke="#63b2c3"/><path d="M1684,698L1680,803L1834,713Z" fill="#5cadc5" stroke="#5cadc5"/><path d="M1834,713L1680,803L1910,823Z" fill="#49a0c8" stroke="#49a0c8"/><path d="M1834,713L1910,823L1968,662Z" fill="#4ba1c8" stroke="#4ba1c8"/><path d="M1968,662L1910,823L2042,856Z" fill="#3d93cb" stroke="#3d93cb"/><path d="M1968,662L2042,856L2140,649Z" fill="#4b97ca" stroke="#4b97ca"/><path d="M2140,649L2042,856L2202,841Z" fill="#3c87ce" stroke="#3c87ce"/><path d="M2140,649L2202,841L2274,771Z" fill="#4386ce" stroke="#4386ce"/><path d="M2140,649L2274,771L2325,669Z" fill="#528bcd" stroke="#528bcd"/><path d="M2325,669L2274,771L2465,697Z" fill="#4e80cf" stroke="#4e80cf"/><path d="M2465,697L2274,771L2429,879Z" fill="#3c73d3" stroke="#3c73d3"/><path d="M2465,697L2429,879L2529,945Z" fill="#2e63d7" stroke="#2e63d7"/><path d="M-28,860L-53,921L73,859Z" fill="#8f617c" stroke="#8f617c"/><path d="M73,859L-53,921L116,933Z" fill="#8b637f" stroke="#8b637f"/><path d="M73,859L116,933L267,782Z" fill="#9a7884" stroke="#9a7884"/><path d="M267,782L116,933L276,976Z" fill="#927b89" stroke="#927b89"/><path d="M267,782L276,976L364,846Z" fill="#9c8a8d" stroke="#9c8a8d"/><path d="M364,846L276,976L408,917Z" fill="#938992" stroke="#938992"/><path d="M364,846L408,917L535,768Z" fill="#a7a094" stroke="#a7a094"/><path d="M535,768L408,917L629,825Z" fill="#acac99" stroke="#acac99"/><path d="M629,825L408,917L465,996Z" fill="#989c9b" stroke="#989c9b"/><path d="M629,825L465,996L732,1020Z" fill="#8fa2a3" stroke="#8fa2a3"/><path d="M629,825L732,1020L788,811Z" fill="#97b0a6" stroke="#97b0a6"/><path d="M788,811L732,1020L868,935Z" fill="#88aead" stroke="#88aead"/><path d="M788,811L868,935L968,802Z" fill="#95bdae" stroke="#95bdae"/><path d="M968,802L868,935L945,949Z" fill="#85b8b3" stroke="#85b8b3"/><path d="M968,802L945,949L1159,884Z" fill="#83bfb8" stroke="#83bfb8"/><path d="M1159,884L945,949L1154,1026Z" fill="#6cb5bf" stroke="#6cb5bf"/><path d="M1159,884L1154,1026L1255,970Z" fill="#61b3c3" stroke="#61b3c3"/><path d="M1159,884L1255,970L1219,828Z" fill="#6fbcc1" stroke="#6fbcc1"/><path d="M1219,828L1255,970L1370,965Z" fill="#61b3c4" stroke="#61b3c4"/><path d="M1219,828L1370,965L1384,769Z" fill="#6dbac2" stroke="#6dbac2"/><path d="M1384,769L1370,965L1528,767Z" fill="#66b5c3" stroke="#66b5c3"/><path d="M1528,767L1370,965L1575,1022Z" fill="#4aa3c8" stroke="#4aa3c8"/><path d="M1528,767L1575,1022L1680,803Z" fill="#4ca3c7" stroke="#4ca3c7"/><path d="M1680,803L1575,1022L1765,1029Z" fill="#2d8fcd" stroke="#2d8fcd"/><path d="M1680,803L1765,1029L1849,941Z" fill="#2a8ccd" stroke="#2a8ccd"/><path d="M1680,803L1849,941L1910,823Z" fill="#3694cb" stroke="#3694cb"/><path d="M1910,823L1849,941L2002,942Z" fill="#1e84cf" stroke="#1e84cf"/><path d="M1910,823L2002,942L2042,856Z" fill="#2583cf" stroke="#2583cf"/><path d="M2042,856L2002,942L2155,929Z" fill="#1d77d2" stroke="#1d77d2"/><path d="M2042,856L2155,929L2202,841Z" fill="#2577d2" stroke="#2577d2"/><path d="M2202,841L2155,929L2283,918Z" fill="#206ed5" stroke="#206ed5"/><path d="M2202,841L2283,918L2274,771Z" fill="#2d73d3" stroke="#2d73d3"/><path d="M2274,771L2283,918L2429,879Z" fill="#2a6bd5" stroke="#2a6bd5"/><path d="M2429,879L2283,918L2318,1071Z" fill="#115ad9" stroke="#115ad9"/><path d="M2429,879L2318,1071L2529,945Z" fill="#0f52dc" stroke="#0f52dc"/><path d="M-53,921L-93,1138L49,1086Z" fill="#6b4281" stroke="#6b4281"/><path d="M-53,921L49,1086L116,933Z" fill="#775682" stroke="#775682"/><path d="M116,933L49,1086L276,976Z" fill="#77618a" stroke="#77618a"/><path d="M276,976L49,1086L279,1178Z" fill="#725b90" stroke="#725b90"/><path d="M276,976L279,1178L358,1076Z" fill="#766996" stroke="#766996"/><path d="M276,976L358,1076L408,917Z" fill="#7f7d95" stroke="#7f7d95"/><path d="M408,917L358,1076L465,996Z" fill="#808399" stroke="#808399"/><path d="M465,996L358,1076L528,1127Z" fill="#7b7d9e" stroke="#7b7d9e"/><path d="M465,996L528,1127L732,1020Z" fill="#7f91a5" stroke="#7f91a5"/><path d="M732,1020L528,1127L638,1184Z" fill="#7b89ab" stroke="#7b89ab"/><path d="M732,1020L638,1184L772,1240Z" fill="#7586b1" stroke="#7586b1"/><path d="M732,1020L772,1240L868,1154Z" fill="#6f8bb5" stroke="#6f8bb5"/><path d="M732,1020L868,1154L868,935Z" fill="#6d9db3" stroke="#6d9db3"/><path d="M868,935L868,1154L971,1108Z" fill="#689bb9" stroke="#689bb9"/><path d="M868,935L971,1108L945,949Z" fill="#6ca7b8" stroke="#6ca7b8"/><path d="M945,949L971,1108L1154,1026Z" fill="#5fa6be" stroke="#5fa6be"/><path d="M1154,1026L971,1108L1080,1129Z" fill="#5c9ec3" stroke="#5c9ec3"/><path d="M1154,1026L1080,1129L1241,1115Z" fill="#55a1c8" stroke="#55a1c8"/><path d="M1154,1026L1241,1115L1255,970Z" fill="#4fa5c7" stroke="#4fa5c7"/><path d="M1255,970L1241,1115L1370,965Z" fill="#48a3c8" stroke="#48a3c8"/><path d="M1370,965L1241,1115L1419,1130Z" fill="#4196cb" stroke="#4196cb"/><path d="M1370,965L1419,1130L1575,1022Z" fill="#3492cc" stroke="#3492cc"/><path d="M1575,1022L1419,1130L1625,1176Z" fill="#2b80d1" stroke="#2b80d1"/><path d="M1575,1022L1625,1176L1697,1080Z" fill="#207bd2" stroke="#207bd2"/><path d="M1575,1022L1697,1080L1765,1029Z" fill="#1b80d0" stroke="#1b80d0"/><path d="M1765,1029L1697,1080L1726,1223Z" fill="#1671d4" stroke="#1671d4"/><path d="M1765,1029L1726,1223L1918,1158Z" fill="#0e67d7" stroke="#0e67d7"/><path d="M1765,1029L1918,1158L1849,941Z" fill="#0973d3" stroke="#0973d3"/><path d="M1849,941L1918,1158L2002,942Z" fill="#0272d4" stroke="#0272d4"/><path d="M2002,942L1918,1158L2065,1163Z" fill="#0060d8" stroke="#0060d8"/><path d="M2002,942L2065,1163L2155,929Z" fill="#0366d7" stroke="#0366d7"/><path d="M2155,929L2065,1163L2191,1185Z" fill="#0054dc" stroke="#0054dc"/><path d="M2155,929L2191,1185L2318,1071Z" fill="#0052dc" stroke="#0052dc"/><path d="M2155,929L2318,1071L2283,918Z" fill="#0d5ed8" stroke="#0d5ed8"/><path d="M2529,945L2318,1071L2437,1168Z" fill="#0042e0" stroke="#0042e0"/><path d="M2529,945L2437,1168L2479,1269Z" fill="#0033e4" stroke="#0033e4"/><path d="M-93,1138L-109,1228L49,1086Z" fill="#6a2f84" stroke="#6a2f84"/><path d="M49,1086L-109,1228L82,1314Z" fill="#6c2d8a" stroke="#6c2d8a"/><path d="M49,1086L82,1314L189,1237Z" fill="#6f3a90" stroke="#6f3a90"/><path d="M49,1086L189,1237L279,1178Z" fill="#714992" stroke="#714992"/><path d="M279,1178L189,1237L322,1271Z" fill="#744b9a" stroke="#744b9a"/><path d="M279,1178L322,1271L358,1076Z" fill="#765b9b" stroke="#765b9b"/><path d="M358,1076L322,1271L528,1127Z" fill="#79689f" stroke="#79689f"/><path d="M528,1127L322,1271L560,1309Z" fill="#7b65a7" stroke="#7b65a7"/><path d="M528,1127L560,1309L638,1184Z" fill="#7f77ac" stroke="#7f77ac"/><path d="M638,1184L560,1309L718,1266Z" fill="#7a72b1" stroke="#7a72b1"/><path d="M638,1184L718,1266L772,1240Z" fill="#7579b4" stroke="#7579b4"/><path d="M868,1154L772,1240L934,1296Z" fill="#6b7fbd" stroke="#6b7fbd"/><path d="M868,1154L934,1296L971,1108Z" fill="#6688bf" stroke="#6688bf"/><path d="M971,1108L934,1296L1080,1129Z" fill="#618dc3" stroke="#618dc3"/><path d="M1080,1129L934,1296L1133,1290Z" fill="#5d85c9" stroke="#5d85c9"/><path d="M1080,1129L1133,1290L1241,1115Z" fill="#5693cc" stroke="#5693cc"/><path d="M1241,1115L1133,1290L1285,1259Z" fill="#4e87d0" stroke="#4e87d0"/><path d="M1241,1115L1285,1259L1419,1130Z" fill="#4488cf" stroke="#4488cf"/><path d="M1419,1130L1285,1259L1418,1320Z" fill="#3d78d3" stroke="#3d78d3"/><path d="M1419,1130L1418,1320L1625,1176Z" fill="#3174d4" stroke="#3174d4"/><path d="M1625,1176L1418,1320L1609,1307Z" fill="#2a66d7" stroke="#2a66d7"/><path d="M1625,1176L1609,1307L1726,1223Z" fill="#1e63d8" stroke="#1e63d8"/><path d="M1625,1176L1726,1223L1697,1080Z" fill="#1b6dd5" stroke="#1b6dd5"/><path d="M1918,1158L1726,1223L1874,1290Z" fill="#0956db" stroke="#0956db"/><path d="M1918,1158L1874,1290L2035,1257Z" fill="#004cde" stroke="#004cde"/><path d="M1918,1158L2035,1257L2065,1163Z" fill="#004edd" stroke="#004edd"/><path d="M2065,1163L2035,1257L2158,1284Z" fill="#0041e1" stroke="#0041e1"/><path d="M2065,1163L2158,1284L2191,1185Z" fill="#0041e1" stroke="#0041e1"/><path d="M2191,1185L2158,1284L2377,1333Z" fill="#0030e5" stroke="#0030e5"/><path d="M2191,1185L2377,1333L2437,1168Z" fill="#002ee5" stroke="#002ee5"/><path d="M2191,1185L2437,1168L2318,1071Z" fill="#003ee1" stroke="#003ee1"/><path d="M2437,1168L2377,1333L2479,1269Z" fill="#0022e8" stroke="#0022e8"/><path d="M-109,1228L-101,1482L48,1385Z" fill="#6a0c8b" stroke="#6a0c8b"/><path d="M-109,1228L48,1385L82,1314Z" fill="#6c1d8e" stroke="#6c1d8e"/><path d="M82,1314L48,1385L228,1439Z" fill="#702095" stroke="#702095"/><path d="M82,1314L228,1439L189,1237Z" fill="#712e98" stroke="#712e98"/><path d="M189,1237L228,1439L322,1271Z" fill="#743b9c" stroke="#743b9c"/><path d="M322,1271L228,1439L416,1466Z" fill="#7638a1" stroke="#7638a1"/><path d="M322,1271L416,1466L469,1457Z" fill="#7942a6" stroke="#7942a6"/><path d="M322,1271L469,1457L560,1309Z" fill="#7b50a9" stroke="#7b50a9"/><path d="M560,1309L469,1457L662,1391Z" fill="#7e59af" stroke="#7e59af"/><path d="M560,1309L662,1391L718,1266Z" fill="#7a67b4" stroke="#7a67b4"/><path d="M718,1266L662,1391L817,1420Z" fill="#7465b9" stroke="#7465b9"/><path d="M718,1266L817,1420L772,1240Z" fill="#716fbb" stroke="#716fbb"/><path d="M772,1240L817,1420L934,1296Z" fill="#6c70c0" stroke="#6c70c0"/><path d="M934,1296L817,1420L1033,1467Z" fill="#6667c5" stroke="#6667c5"/><path d="M934,1296L1033,1467L1102,1412Z" fill="#5f6bca" stroke="#5f6bca"/><path d="M934,1296L1102,1412L1133,1290Z" fill="#5d76cc" stroke="#5d76cc"/><path d="M1133,1290L1102,1412L1263,1415Z" fill="#5473d2" stroke="#5473d2"/><path d="M1133,1290L1263,1415L1285,1259Z" fill="#4d76d3" stroke="#4d76d3"/><path d="M1285,1259L1263,1415L1418,1320Z" fill="#436dd5" stroke="#436dd5"/><path d="M1418,1320L1263,1415L1471,1382Z" fill="#3c62d6" stroke="#3c62d6"/><path d="M1418,1320L1471,1382L1609,1307Z" fill="#2f5fd8" stroke="#2f5fd8"/><path d="M1609,1307L1471,1382L1534,1420Z" fill="#2b56d9" stroke="#2b56d9"/><path d="M1609,1307L1534,1420L1685,1416Z" fill="#234fda" stroke="#234fda"/><path d="M1609,1307L1685,1416L1726,1223Z" fill="#1c54dc" stroke="#1c54dc"/><path d="M1726,1223L1685,1416L1874,1290Z" fill="#124edd" stroke="#124edd"/><path d="M1874,1290L1685,1416L1883,1373Z" fill="#0c42de" stroke="#0c42de"/><path d="M1874,1290L1883,1373L1995,1367Z" fill="#013de0" stroke="#013de0"/><path d="M1874,1290L1995,1367L2035,1257Z" fill="#003fe1" stroke="#003fe1"/><path d="M2035,1257L1995,1367L2158,1284Z" fill="#0038e3" stroke="#0038e3"/><path d="M2158,1284L1995,1367L2165,1439Z" fill="#002be4" stroke="#002be4"/><path d="M2158,1284L2165,1439L2377,1333Z" fill="#0023e6" stroke="#0023e6"/><path d="M2377,1333L2165,1439L2366,1443Z" fill="#0015e8" stroke="#0015e8"/><path d="M2377,1333L2366,1443L2424,1435Z" fill="#000ee9" stroke="#000ee9"/><path d="M2377,1333L2424,1435L2479,1269Z" fill="#0015ea" stroke="#0015ea"/><path d="M-101,1482L1033,1467L416,1466Z" fill="#7b47a9" stroke="#7b47a9"/><path d="M-101,1482L416,1466L228,1439Z" fill="#722499" stroke="#722499"/><path d="M-101,1482L228,1439L48,1385Z" fill="#6e1491" stroke="#6e1491"/><path d="M416,1466L1033,1467L469,1457Z" fill="#7a5ab4" stroke="#7a5ab4"/><path d="M469,1457L1033,1467L817,1420Z" fill="#715fbc" stroke="#715fbc"/><path d="M469,1457L817,1420L662,1391Z" fill="#7a5ab4" stroke="#7a5ab4"/><path d="M1033,1467L2366,1443L2165,1439Z" fill="#0838df" stroke="#0838df"/><path d="M1033,1467L2165,1439L1534,1420Z" fill="#274eda" stroke="#274eda"/><path d="M1033,1467L1534,1420L1263,1415Z" fill="#4865d4" stroke="#4865d4"/><path d="M1033,1467L1263,1415L1102,1412Z" fill="#576ed1" stroke="#576ed1"/><path d="M1263,1415L1534,1420L1471,1382Z" fill="#385ad7" stroke="#385ad7"/><path d="M1534,1420L2165,1439L1685,1416Z" fill="#0e3dde" stroke="#0e3dde"/><path d="M1685,1416L2165,1439L1883,1373Z" fill="#0234e0" stroke="#0234e0"/><path d="M1883,1373L2165,1439L1995,1367Z" fill="#002de2" stroke="#002de2"/></g></svg>